<svg width="94" height="123" viewBox="0 0 94 123" fill="none" xmlns="http://www.w3.org/2000/svg">
<path fill-rule="evenodd" clip-rule="evenodd" d="M11.3898 117.714H20.4981L22.2356 122H27L18.228 102H13.744L5 122H9.65224L11.3898 117.714ZM16 107L19 115H13L16 107Z" fill="#000810"/>
<path fill-rule="evenodd" clip-rule="evenodd" d="M38.029 116.429L41.9484 122H47L42.4419 115.572C43.7774 115 44.8032 114.181 45.5193 113.115C46.2548 112.029 46.6225 110.743 46.6225 109.257C46.6225 107.771 46.2644 106.486 45.5484 105.4C44.8322 104.314 43.8064 103.476 42.4709 102.886C41.1548 102.295 39.5968 102 37.7968 102H29V122H33.7033V116.429H37.7968H38.029ZM40.9182 106.918C41.6394 107.511 42 108.372 42 109.5C42 110.609 41.6394 111.47 40.9182 112.082C40.197 112.694 39.1436 113 37.758 113H34V106H37.758C39.1436 106 40.197 106.306 40.9182 106.918Z" fill="#000810"/>
<path d="M58.9999 123C56.1609 123 53.9463 122.184 52.3565 120.552C50.7854 118.92 50 116.59 50 113.561V102H54.5993V113.385C54.5993 117.081 56.0757 118.929 59.0283 118.929C60.4669 118.929 61.5647 118.487 62.3217 117.602C63.0789 116.698 63.4574 115.292 63.4574 113.385V102H68V113.561C68 116.59 67.205 118.92 65.6151 120.552C64.0442 122.184 61.8391 123 58.9999 123Z" fill="#000810"/>
<path fill-rule="evenodd" clip-rule="evenodd" d="M84.9951 102.886C83.7254 102.295 82.2223 102 80.4859 102H72V122H76.537V116.486H80.4859C82.2223 116.486 83.7254 116.201 84.9951 115.629C86.2833 115.038 87.2729 114.2 87.9637 113.115C88.6546 112.01 89 110.724 89 109.257C89 107.771 88.6546 106.486 87.9637 105.4C87.2729 104.314 86.2833 103.476 84.9951 102.886ZM83.9182 112.107C83.197 112.702 82.1435 113 80.758 113H77V106H80.758C82.1435 106 83.197 106.308 83.9182 106.922C84.6394 107.517 85 108.382 85 109.515C85 110.628 84.6394 111.493 83.9182 112.107Z" fill="#000810"/>
<path d="M23.25 83L0 41.5L23.25 0H69.75L94 41.8808L69.75 83H23.25Z" fill="#000810"/>
<path d="M25 1L47.3333 41H92L69.6667 1H25Z" fill="#000810" stroke="#A9A9A9" stroke-width="2"/>
</svg>
