<svg width="176" height="123" viewBox="0 0 176 123" fill="none" xmlns="http://www.w3.org/2000/svg">
<path fill-rule="evenodd" clip-rule="evenodd" d="M11.2087 114.2C12.081 114.472 12.7642 114.929 13.2586 115.572C13.7528 116.201 14 116.979 14 117.908C14 119.221 13.4766 120.236 12.4299 120.95C11.3977 121.651 9.88574 122 7.89406 122H0V107H7.45792C9.31877 107 10.7435 107.35 11.732 108.051C12.7352 108.751 13.2367 109.701 13.2367 110.901C13.2367 111.629 13.055 112.279 12.6915 112.85C12.3426 113.422 11.8483 113.872 11.2087 114.2ZM4 110V114H7.41343C8.26148 114 8.90459 113.83 9.34275 113.491C9.78092 113.151 10 112.65 10 111.988C10 111.325 9.78092 110.832 9.34275 110.509C8.90459 110.169 8.26148 110 7.41343 110H4ZM10.2736 119.515C9.80395 119.839 9.09956 120 8.16035 120H4V116H8.16035C10.0534 116 11 116.671 11 118.012C11 118.69 10.7578 119.191 10.2736 119.515Z" fill="#000810"/>
<path fill-rule="evenodd" clip-rule="evenodd" d="M22.5209 117.822L25.3516 122H29L25.708 117.179C26.6726 116.75 27.4134 116.136 27.9306 115.337C28.4618 114.521 28.7274 113.558 28.7274 112.443C28.7274 111.329 28.4688 110.365 27.9516 109.55C27.4344 108.736 26.6935 108.107 25.729 107.664C24.7785 107.221 23.6532 107 22.3532 107H16V122H19.3968V117.822H22.3532H22.5209ZM24.1886 110.656C24.7295 111.079 25 111.694 25 112.5C25 113.292 24.7295 113.907 24.1886 114.344C23.6477 114.781 22.8577 115 21.8185 115H19V110H21.8185C22.8577 110 23.6477 110.219 24.1886 110.656Z" fill="#000810"/>
<path d="M32 107H35V122H32V107Z" fill="#000810"/>
<path d="M45.9432 123C44.4481 123 43.0929 122.661 41.8773 121.983C40.6757 121.291 39.7256 120.341 39.027 119.132C38.3423 117.91 38 116.532 38 115C38 113.468 38.3423 112.097 39.027 110.889C39.7256 109.666 40.6757 108.716 41.8773 108.038C43.0929 107.346 44.4552 107 45.9641 107C47.2356 107 48.3813 107.236 49.4012 107.707C50.4352 108.178 51.3014 108.856 52 109.74L49.8204 111.862C48.8283 110.654 47.5988 110.05 46.1318 110.05C45.2236 110.05 44.4132 110.263 43.7006 110.691C42.988 111.103 42.4292 111.685 42.024 112.436C41.6328 113.188 41.4372 114.042 41.4372 115C41.4372 115.958 41.6328 116.812 42.024 117.563C42.4292 118.315 42.988 118.904 43.7006 119.332C44.4132 119.744 45.2236 119.95 46.1318 119.95C47.5988 119.95 48.8283 119.339 49.8204 118.116L52 120.237C51.3014 121.137 50.4352 121.822 49.4012 122.293C48.3673 122.764 47.2146 123 45.9432 123Z" fill="#000810"/>
<path d="M60.3442 116.108L58.3742 118.208V122H55V107H58.3742V114.008L64.8712 107H68.6437L62.5658 113.686L69 122H65.0388L60.3442 116.108Z" fill="#000810"/>
<path fill-rule="evenodd" clip-rule="evenodd" d="M88.2239 123L86.4687 121.269C85.0756 122.423 83.4457 123 81.5791 123C80.5203 123 79.5662 122.822 78.7164 122.468C77.8666 122.098 77.1979 121.588 76.7105 120.937C76.2368 120.286 76 119.553 76 118.739C76 117.777 76.2507 116.934 76.7522 116.21C77.2676 115.47 78.0895 114.768 79.2179 114.101C78.6885 113.525 78.3055 112.977 78.0686 112.459C77.8318 111.926 77.7134 111.38 77.7134 110.817C77.7134 110.062 77.9015 109.397 78.2775 108.819C78.6537 108.243 79.183 107.799 79.8656 107.489C80.5622 107.163 81.3631 107 82.2686 107C83.5362 107 84.5532 107.325 85.3194 107.976C86.0855 108.613 86.4687 109.479 86.4687 110.573C86.4687 111.371 86.2388 112.082 85.779 112.703C85.3333 113.324 84.6089 113.923 83.6059 114.501L86.2805 117.142C86.601 116.431 86.8447 115.625 87.0119 114.723L89.6238 115.588C89.3452 116.964 88.8995 118.14 88.2865 119.116L90 120.803L88.2239 123ZM82.5724 109C82.0896 109 81.7034 109.118 81.4139 109.352C81.138 109.588 81 109.889 81 110.254C81 110.529 81.0759 110.791 81.2276 111.04C81.3794 111.274 81.6759 111.595 82.1173 112C82.8206 111.647 83.3103 111.334 83.5862 111.059C83.862 110.771 84 110.464 84 110.138C84 109.797 83.8758 109.523 83.6276 109.314C83.3793 109.104 83.0276 109 82.5724 109ZM84 119.175C83.2448 119.725 82.392 120 81.4415 120C80.6993 120 80.1068 119.839 79.6641 119.517C79.2214 119.196 79 118.774 79 118.251C79 117.809 79.1303 117.413 79.3907 117.065C79.6511 116.717 80.0872 116.361 80.6993 116L84 119.175Z" fill="#000810"/>
<path fill-rule="evenodd" clip-rule="evenodd" d="M110.209 114.2C111.081 114.472 111.764 114.929 112.259 115.572C112.753 116.201 113 116.979 113 117.908C113 119.221 112.477 120.236 111.43 120.95C110.398 121.651 108.886 122 106.894 122H99V107H106.458C108.319 107 109.744 107.35 110.732 108.051C111.735 108.751 112.237 109.701 112.237 110.901C112.237 111.629 112.055 112.279 111.692 112.85C111.342 113.422 110.849 113.872 110.209 114.2ZM103 110V114H106.413C107.261 114 107.905 113.83 108.342 113.491C108.781 113.151 109 112.65 109 111.988C109 111.325 108.781 110.832 108.342 110.509C107.905 110.169 107.261 110 106.413 110H103ZM109.274 119.515C108.804 119.839 108.1 120 107.161 120H103V116H107.161C109.054 116 110 116.671 110 118.012C110 118.69 109.758 119.191 109.274 119.515Z" fill="#000810"/>
<path d="M115 107H118.474V119.172H126V122H115V107Z" fill="#000810"/>
<path fill-rule="evenodd" clip-rule="evenodd" d="M130.885 121.962C132.111 122.654 133.482 123 135 123C136.518 123 137.883 122.654 139.094 121.962C140.306 121.269 141.26 120.319 141.956 119.111C142.652 117.887 143 116.518 143 115C143 113.482 142.652 112.12 141.956 110.911C141.26 109.689 140.306 108.731 139.094 108.038C137.883 107.346 136.518 107 135 107C133.482 107 132.111 107.346 130.885 108.038C129.673 108.731 128.72 109.689 128.023 110.911C127.341 112.12 127 113.482 127 115C127 116.518 127.341 117.887 128.023 119.111C128.72 120.319 129.673 121.269 130.885 121.962ZM136.802 119.375C136.116 119.792 135.349 120 134.5 120C133.651 120 132.884 119.792 132.198 119.375C131.514 118.943 130.972 118.349 130.575 117.589C130.191 116.83 130 115.968 130 115C130 114.032 130.191 113.17 130.575 112.41C130.972 111.651 131.514 111.064 132.198 110.647C132.884 110.215 133.651 110 134.5 110C135.349 110 136.116 110.215 136.802 110.647C137.486 111.064 138.021 111.651 138.404 112.41C138.802 113.17 139 114.032 139 115C139 115.968 138.802 116.83 138.404 117.589C138.021 118.349 137.486 118.943 136.802 119.375Z" fill="#000810"/>
<path d="M152.943 123C151.447 123 150.093 122.661 148.877 121.983C147.676 121.291 146.725 120.341 146.027 119.132C145.342 117.91 145 116.532 145 115C145 113.468 145.342 112.097 146.027 110.889C146.725 109.666 147.676 108.716 148.877 108.038C150.093 107.346 151.454 107 152.963 107C154.235 107 155.381 107.236 156.401 107.707C157.435 108.178 158.301 108.856 159 109.74L156.82 111.862C155.828 110.654 154.599 110.05 153.131 110.05C152.224 110.05 151.413 110.263 150.701 110.691C149.988 111.103 149.429 111.685 149.024 112.436C148.632 113.188 148.437 114.042 148.437 115C148.437 115.958 148.632 116.812 149.024 117.563C149.429 118.315 149.988 118.904 150.701 119.332C151.413 119.744 152.224 119.95 153.131 119.95C154.599 119.95 155.828 119.339 156.82 118.116L159 120.237C158.301 121.137 157.435 121.822 156.401 122.293C155.367 122.764 154.214 123 152.943 123Z" fill="#000810"/>
<path d="M167.344 116.108L165.374 118.208V122H162V107H165.374V114.008L171.871 107H175.644L169.566 113.686L176 122H172.039L167.344 116.108Z" fill="#000810"/>
<path d="M125 5.02093L119.976 0L117 2.91788L122.078 8L125 5.02093Z" fill="#000810"/>
<path d="M91.9497 40L103.561 27.8633L113.512 38.2037L130 20.9698L113.442 3.66284C111.213 5.65782 108.346 6.69821 105.414 6.57527C102.482 6.45233 99.7034 5.17516 97.6351 3L88.7249 12.313L98.6117 22.7064L87 34.8431L91.9497 40Z" fill="#000810"/>
<path d="M108.908 50.528L103.046 56.451L69.6927 22.4362L79.7319 12.1853L70.7362 3C68.6367 5.1425 65.8242 6.39935 62.8581 6.52048C59.8922 6.64163 56.9904 5.61817 54.7299 3.65375L38 20.72L54.7139 37.7176L64.6986 27.5223L79.1045 42.2319L65.1533 56.4281L59.3493 50.5051L46.8131 63.2533C44.6342 65.5244 43.4211 68.5816 43.4371 71.7607C43.4531 74.9399 44.697 77.9842 46.8987 80.2322C49.1003 82.4803 52.0817 83.7505 55.1952 83.7668C58.3088 83.7832 61.3029 82.5444 63.527 80.3196L76.012 67.5224L70.2081 61.5961L84.0984 47.3605L98.0528 61.6091L92.1913 67.5354L104.727 80.3327C105.818 81.4825 107.121 82.399 108.562 83.0286C110.003 83.6581 111.553 83.9883 113.12 83.9997C114.686 84.011 116.24 83.7034 117.69 83.0948C119.139 82.4861 120.456 81.5886 121.562 80.4547C122.667 79.3209 123.541 77.9733 124.131 76.4909C124.722 75.0084 125.016 73.4207 124.999 71.8205C124.981 70.2203 124.652 68.6396 124.03 67.1709C123.407 65.7022 122.505 64.3748 121.374 63.2664L108.908 50.528Z" fill="#000810"/>
<path d="M51 2.91788L48.0596 0L43 5.02093L45.9404 8L51 2.91788Z" fill="#000810"/>
</svg>
