<svg width="129" height="121" viewBox="0 0 129 121" fill="none" xmlns="http://www.w3.org/2000/svg">
<path d="M3.67486 102.972V107.2H11.0246V110.171H3.67486V116H0V100H12V102.972H3.67486Z" fill="#000810"/>
<path d="M14 99H18V116H14V99Z" fill="#000810"/>
<path d="M34 104V116.809H30.4697V115.285C29.9768 115.841 29.3883 116.269 28.7046 116.571C28.0208 116.857 27.2814 117 26.4862 117C24.8006 117 23.4649 116.516 22.4789 115.547C21.4929 114.579 21 113.143 21 111.238V104H24.7211V110.69C24.7211 112.754 25.5878 113.786 27.3211 113.786C28.2117 113.786 28.9272 113.499 29.4678 112.928C30.0086 112.341 30.2789 111.476 30.2789 110.334V104H34Z" fill="#000810"/>
<path fill-rule="evenodd" clip-rule="evenodd" d="M39.3874 116.178C40.4614 116.726 41.6695 117 43.0119 117C44.3542 117 45.5544 116.726 46.6126 116.178C47.6706 115.616 48.4997 114.841 49.0999 113.856C49.7 112.869 50 111.751 50 110.5C50 109.249 49.7 108.131 49.0999 107.144C48.4997 106.159 47.6706 105.392 46.6126 104.845C45.5544 104.282 44.3542 104 43.0119 104C41.6695 104 40.4614 104.282 39.3874 104.845C38.3293 105.392 37.5002 106.159 36.9001 107.144C36.3 108.131 36 109.249 36 110.5C36 111.751 36.3 112.869 36.9001 113.856C37.5002 114.841 38.3293 115.616 39.3874 116.178ZM46.0073 113.06C45.3625 113.687 44.5309 114 43.5128 114C42.4945 114 41.6545 113.687 40.9927 113.06C40.3308 112.419 40 111.565 40 110.5C40 109.435 40.3308 108.589 40.9927 107.963C41.6545 107.32 42.4945 107 43.5128 107C44.5309 107 45.3625 107.32 46.0073 107.963C46.6691 108.589 47 109.435 47 110.5C47 111.565 46.6691 112.419 46.0073 113.06Z" fill="#000810"/>
<path d="M55.5689 105.881C56.016 105.262 56.6148 104.793 57.3652 104.476C58.1318 104.159 59.0099 104 60 104V107.429C59.5848 107.397 59.3054 107.381 59.1617 107.381C58.0918 107.381 57.2535 107.683 56.6467 108.286C56.0399 108.873 55.7365 109.762 55.7365 110.953V117H52V104.191H55.5689V105.881Z" fill="#000810"/>
<path d="M76.5105 117C74.9087 117 73.4566 116.64 72.1542 115.92C70.8668 115.184 69.8488 114.175 69.1004 112.891C68.3668 111.592 68 110.128 68 108.5C68 106.872 68.3668 105.416 69.1004 104.132C69.8488 102.833 70.8668 101.823 72.1542 101.104C73.4566 100.368 74.9163 100 76.533 100C77.8952 100 79.1228 100.25 80.2156 100.751C81.3234 101.252 82.2515 101.973 83 102.912L80.6647 105.166C79.6018 103.882 78.2845 103.24 76.7127 103.24C75.7396 103.24 74.8712 103.468 74.1078 103.921C73.3444 104.36 72.7455 104.978 72.3114 105.777C71.8923 106.575 71.6827 107.482 71.6827 108.5C71.6827 109.518 71.8923 110.425 72.3114 111.224C72.7455 112.022 73.3444 112.648 74.1078 113.102C74.8712 113.54 75.7396 113.76 76.7127 113.76C78.2845 113.76 79.6018 113.111 80.6647 111.811L83 114.065C82.2515 115.02 81.3234 115.748 80.2156 116.249C79.1078 116.75 77.8728 117 76.5105 117Z" fill="#000810"/>
<path fill-rule="evenodd" clip-rule="evenodd" d="M87.3874 116.178C88.4614 116.726 89.6695 117 91.0119 117C92.3543 117 93.5544 116.726 94.6126 116.178C95.6707 115.616 96.4998 114.841 97.0999 113.856C97.7 112.869 98 111.751 98 110.5C98 109.249 97.7 108.131 97.0999 107.144C96.4998 106.159 95.6707 105.392 94.6126 104.845C93.5544 104.282 92.3543 104 91.0119 104C89.6695 104 88.4614 104.282 87.3874 104.845C86.3294 105.392 85.5003 106.159 84.9002 107.144C84.3 108.131 84 109.249 84 110.5C84 111.751 84.3 112.869 84.9002 113.856C85.5003 114.841 86.3294 115.616 87.3874 116.178ZM94.0073 113.06C93.3625 113.687 92.531 114 91.5128 114C90.4945 114 89.6546 113.687 88.9927 113.06C88.3309 112.419 88 111.565 88 110.5C88 109.435 88.3309 108.589 88.9927 107.963C89.6546 107.32 90.4945 107 91.5128 107C92.531 107 93.3625 107.32 94.0073 107.963C94.6692 108.589 95 109.435 95 110.5C95 111.565 94.6692 112.419 94.0073 113.06Z" fill="#000810"/>
<path d="M103.569 105.881C104.016 105.262 104.615 104.793 105.365 104.476C106.132 104.159 107.01 104 108 104V107.429C107.585 107.397 107.305 107.381 107.162 107.381C106.091 107.381 105.253 107.683 104.647 108.286C104.04 108.873 103.736 109.762 103.736 110.953V117H100V104.191H103.569V105.881Z" fill="#000810"/>
<path fill-rule="evenodd" clip-rule="evenodd" d="M120.072 104.804C119.169 104.268 118.164 104 117.054 104C115.413 104 114.163 104.536 113.305 105.609V104.184H110V121H113.46V115.234C114.333 116.229 115.531 116.727 117.054 116.727C118.164 116.727 119.169 116.467 120.072 115.946C120.988 115.41 121.706 114.667 122.224 113.718C122.741 112.753 123 111.634 123 110.364C123 109.093 122.741 107.982 122.224 107.033C121.706 106.068 120.988 105.325 120.072 104.804ZM118.146 113.06C117.591 113.687 116.876 114 116 114C115.125 114 114.401 113.687 113.832 113.06C113.278 112.419 113 111.565 113 110.5C113 109.435 113.278 108.589 113.832 107.963C114.401 107.32 115.125 107 116 107C116.876 107 117.591 107.32 118.146 107.963C118.716 108.589 119 109.435 119 110.5C119 111.565 118.716 112.419 118.146 113.06Z" fill="#000810"/>
<path d="M127 116C126.436 116 125.962 115.807 125.578 115.423C125.192 115.038 125 114.556 125 113.979C125 113.388 125.192 112.914 125.578 112.556C125.962 112.186 126.436 112 127 112C127.564 112 128.037 112.186 128.422 112.556C128.807 112.914 129 113.388 129 113.979C129 114.556 128.807 115.038 128.422 115.423C128.037 115.807 127.564 116 127 116Z" fill="#000810"/>
<path d="M105 1H55V52H105V1Z" stroke="#000810"/>
<path d="M73 33H23V84H73V33Z" fill="#000810"/>
<path d="M46.9811 53.5285V58.55H54.9433V62.0785H46.9811V69H43V50H56V53.5285H46.9811Z" fill="white"/>
<path d="M82.6452 35C80.8298 35 79.1841 34.5976 77.708 33.7928C76.249 32.9705 75.0953 31.8421 74.247 30.4075C73.4156 28.9553 73 27.3195 73 25.4999C73 23.6805 73.4156 22.0534 74.247 20.6188C75.0953 19.1666 76.249 18.0382 77.708 17.2334C79.1841 16.4111 80.8383 16 82.6706 16C84.2146 16 85.6058 16.2799 86.8443 16.8398C88.0997 17.3996 89.1516 18.2044 90 19.2541L87.3532 21.7735C86.1487 20.3389 84.6556 19.6216 82.8743 19.6216C81.7714 19.6216 80.7874 19.8752 79.9221 20.3826C79.0569 20.8724 78.3782 21.5635 77.8862 22.4558C77.4112 23.3481 77.1736 24.3628 77.1736 25.4999C77.1736 26.6372 77.4112 27.6519 77.8862 28.5442C78.3782 29.4364 79.0569 30.1363 79.9221 30.6436C80.7874 31.1335 81.7714 31.3784 82.8743 31.3784C84.6556 31.3784 86.1487 30.6524 87.3532 29.2003L90 31.7196C89.1516 32.7868 88.0997 33.6004 86.8443 34.1602C85.5888 34.7201 84.1891 35 82.6452 35Z" fill="#000810"/>
</svg>
