<svg width="142" height="123" viewBox="0 0 142 123" fill="none" xmlns="http://www.w3.org/2000/svg">
<path fill-rule="evenodd" clip-rule="evenodd" d="M34.0193 94.1L36.6322 98H40L36.9613 93.5C37.8516 93.1 38.5355 92.5267 39.0129 91.7801C39.5032 91.0201 39.7484 90.12 39.7484 89.08C39.7484 88.0401 39.5097 87.14 39.0322 86.38C38.5549 85.62 37.8709 85.0334 36.9806 84.6201C36.1032 84.2068 35.0645 84 33.8645 84H28V98H31.1355V94.1H33.8645H34.0193ZM35.3239 87.6558C35.7746 88.0792 36 88.694 36 89.5C36 90.2924 35.7746 90.9071 35.3239 91.3442C34.8731 91.7814 34.2147 92 33.3488 92H31V87H33.3488C34.2147 87 34.8731 87.2186 35.3239 87.6558Z" fill="#000810"/>
<path d="M54 95.4V98H43V84H53.7362V86.6H46.2676V89.64H52.8635V92.1601H46.2676V95.4H54Z" fill="#000810"/>
<path d="M68.1102 98L68.0913 89.6L64.1749 96.52H62.7871L58.8898 89.78V98H56V84H58.5476L63.5285 92.7001L68.4335 84H70.9619L71 98H68.1102Z" fill="#000810"/>
<path d="M85 95.4V98H74V84H84.7362V86.6H77.2676V89.64H83.8635V92.1601H77.2676V95.4H85Z" fill="#000810"/>
<path fill-rule="evenodd" clip-rule="evenodd" d="M94.3238 84H88V98H94.3238C95.8351 98 97.1674 97.7133 98.3208 97.14C99.4875 96.5533 100.389 95.7333 101.026 94.68C101.675 93.6267 102 92.4 102 91C102 89.6 101.675 88.3734 101.026 87.3201C100.389 86.2667 99.4875 85.4534 98.3208 84.8801C97.1674 84.2934 95.8351 84 94.3238 84ZM97.6667 94.7973C96.7919 95.5991 95.6138 96 94.1322 96H91V87H94.1322C95.6138 87 96.7919 87.4078 97.6667 88.2235C98.5556 89.0254 99 90.1175 99 91.5C99 92.8825 98.5556 93.9816 97.6667 94.7973Z" fill="#000810"/>
<path d="M109.599 93.04V98H106.381V93L101 84H104.415L108.129 90.22L111.842 84H115L109.599 93.04Z" fill="#000810"/>
<path d="M11 120.4V123H0V109H10.7362V111.6H3.26753V114.64H9.86348V117.16H3.26753V120.4H11Z" fill="#000810"/>
<path d="M26 109V123H23.3069L16.2399 114.501V123H13V109H15.7135L22.7601 117.5V109H26Z" fill="#000810"/>
<path d="M37.913 115.272H40.7508V121.156C40.0221 121.75 39.1785 122.206 38.2198 122.523C37.261 122.841 36.2959 123 35.3245 123C33.9312 123 32.6785 122.682 31.5664 122.047C30.4542 121.397 29.5787 120.507 28.9395 119.374C28.3132 118.228 28 116.936 28 115.499C28 114.064 28.3132 112.778 28.9395 111.646C29.5787 110.499 30.4607 109.609 31.5855 108.974C32.7104 108.324 33.9759 108 35.382 108C36.5581 108 37.6254 108.214 38.5841 108.643C39.5428 109.07 40.3481 109.691 41 110.507L39.0059 112.496C38.0472 111.405 36.8904 110.859 35.5354 110.859C34.679 110.859 33.9184 111.052 33.2537 111.438C32.589 111.826 32.0713 112.371 31.7006 113.076C31.3299 113.78 31.1445 114.588 31.1445 115.499C31.1445 116.397 31.3299 117.199 31.7006 117.903C32.0713 118.608 32.5826 119.16 33.2346 119.56C33.8992 119.948 34.6534 120.141 35.4971 120.141C36.3918 120.141 37.1972 119.934 37.913 119.519V115.272Z" fill="#000810"/>
<path d="M44 109H47V123H44V109Z" fill="#000810"/>
<path d="M64 109V123H61.3069L54.2399 114.501V123H51V109H53.7134L60.7602 117.5V109H64Z" fill="#000810"/>
<path d="M77 120.4V123H66V109H76.7362V111.6H69.2675V114.64H75.8634V117.16H69.2675V120.4H77Z" fill="#000810"/>
<path d="M91 120.4V123H80V109H90.7362V111.6H83.2675V114.64H89.8634V117.16H83.2675V120.4H91Z" fill="#000810"/>
<path fill-rule="evenodd" clip-rule="evenodd" d="M99.0191 119.1L101.632 123H105L101.961 118.5C102.851 118.1 103.535 117.527 104.012 116.78C104.503 116.02 104.748 115.12 104.748 114.08C104.748 113.04 104.509 112.14 104.032 111.38C103.555 110.62 102.871 110.034 101.981 109.62C101.103 109.207 100.064 109 98.8643 109H93V123H96.1354V119.1H98.8643H99.0191ZM100.324 112.656C100.775 113.08 101 113.694 101 114.5C101 115.292 100.775 115.908 100.324 116.344C99.8734 116.781 99.215 117 98.349 117H96V112H98.349C99.215 112 99.8734 112.219 100.324 112.656Z" fill="#000810"/>
<path d="M107 109H110V123H107V109Z" fill="#000810"/>
<path d="M127 109V123H124.307L117.24 114.501V123H114V109H116.713L123.761 117.5V109H127Z" fill="#000810"/>
<path d="M138.913 115.272H141.751V121.156C141.022 121.75 140.179 122.206 139.22 122.523C138.261 122.841 137.296 123 136.325 123C134.931 123 133.678 122.682 132.566 122.047C131.454 121.397 130.578 120.507 129.94 119.374C129.313 118.228 129 116.936 129 115.499C129 114.064 129.313 112.778 129.94 111.646C130.578 110.499 131.46 109.609 132.585 108.974C133.71 108.324 134.976 108 136.381 108C137.558 108 138.626 108.214 139.584 108.643C140.543 109.07 141.348 109.691 142 110.507L140.006 112.496C139.047 111.405 137.89 110.859 136.536 110.859C135.679 110.859 134.918 111.052 134.253 111.438C133.589 111.826 133.071 112.371 132.7 113.076C132.329 113.78 132.145 114.588 132.145 115.499C132.145 116.397 132.329 117.199 132.7 117.903C133.071 118.608 133.582 119.16 134.235 119.56C134.899 119.948 135.653 120.141 136.497 120.141C137.391 120.141 138.197 119.934 138.913 119.519V115.272Z" fill="#000810"/>
<path fill-rule="evenodd" clip-rule="evenodd" d="M30.8316 65.7103H23V65.7212V69H33.5157V18.2821H49.1834V69H59.7972V14.9951H51.8675V3.28975H77.4825V30.4575L69.5504 25.9983V69H80.1666V35.5615L85.7577 38.7038V69H96.3715V41.0645L88.4418 36.6052V25.5693L107.48 14.6727V68.9892H118V65.7103H110.169V9.51951L85.7622 23.4873V35.1107L80.171 31.9685V0H49.1834V14.9951H30.8316V65.7103ZM88 65V40L93 42.8959V65H88ZM57 18H52V65H57V18ZM72 31L77 33.9816V66H72V31Z" fill="#000810"/>
</svg>
