<svg width="144" height="123" viewBox="0 0 144 123" fill="none" xmlns="http://www.w3.org/2000/svg">
<path d="M4.38843 123C3.54545 123 2.72727 122.885 1.93388 122.654C1.1405 122.423 0.495867 122.115 0 121.731L0.966946 119.324C1.43305 119.665 1.97355 119.939 2.58843 120.149C3.20331 120.357 3.80827 120.461 4.4033 120.461C5.53388 120.461 6.09917 120.149 6.09917 119.522C6.09917 119.192 5.93553 118.95 5.60826 118.797C5.29091 118.632 4.7752 118.461 4.06116 118.285C3.27768 118.099 2.62314 117.901 2.09752 117.692C1.5719 117.472 1.12066 117.126 0.743802 116.654C0.366942 116.181 0.178512 115.544 0.178512 114.741C0.178512 114.038 0.352065 113.406 0.699173 112.846C1.04628 112.274 1.56198 111.824 2.24628 111.494C2.94049 111.164 3.78842 111 4.79008 111C5.47438 111 6.14876 111.088 6.81322 111.264C7.47768 111.428 8.06281 111.676 8.56859 112.005L7.66115 114.429C6.66942 113.835 5.70744 113.539 4.7752 113.539C4.19008 113.539 3.76363 113.637 3.49587 113.835C3.2281 114.022 3.09421 114.269 3.09421 114.577C3.09421 114.884 3.2529 115.115 3.57024 115.27C3.8876 115.423 4.39835 115.582 5.10248 115.748C5.89587 115.934 6.55041 116.137 7.06612 116.357C7.59173 116.566 8.04298 116.907 8.41983 117.379C8.80661 117.84 9 118.472 9 119.275C9 119.967 8.82644 120.594 8.47934 121.154C8.13223 121.714 7.61157 122.164 6.91736 122.506C6.22313 122.836 5.38016 123 4.38843 123Z" fill="#000810"/>
<path d="M13.429 114.467H10V112H20V114.467H16.5869V123H13.429V114.467Z" fill="#000810"/>
<path fill-rule="evenodd" clip-rule="evenodd" d="M23.1044 120.863H27.8316L28.71 123H32L27.0491 112H23.9349L19 123H22.226L23.1044 120.863ZM25.5 115L27 119H24L25.5 115Z" fill="#000810"/>
<path d="M33.429 114.467H30V112H40V114.467H36.5869V123H33.429V114.467Z" fill="#000810"/>
<path d="M50 120.596V123H41V112H49.7919V114.404H44.1388V116.258H49.1192V118.584H44.1388V120.596H50Z" fill="#000810"/>
<path fill-rule="evenodd" clip-rule="evenodd" d="M58.9151 122.225C59.8304 122.742 60.8586 123 62 123C63.1414 123 64.1646 122.742 65.0694 122.225C65.9846 121.709 66.6993 120.995 67.2133 120.082C67.7378 119.17 68 118.142 68 116.999C68 115.858 67.7378 114.83 67.2133 113.918C66.6993 113.005 65.9846 112.291 65.0694 111.775C64.1646 111.258 63.1414 111 62 111C60.8586 111 59.8304 111.258 58.9151 111.775C58.0103 112.291 57.2956 113.005 56.7712 113.918C56.257 114.83 56 115.858 56 116.999C56 118.142 56.257 119.17 56.7712 120.082C57.2956 120.995 58.0103 121.709 58.9151 122.225ZM63.5238 120.563C63.0688 120.854 62.5609 121 62 121C61.4391 121 60.9312 120.854 60.4762 120.563C60.0212 120.27 59.6614 119.863 59.3969 119.337C59.1323 118.801 59 118.188 59 117.499C59 116.812 59.1323 116.205 59.3969 115.68C59.6614 115.143 60.0212 114.73 60.4762 114.437C60.9312 114.146 61.4391 114 62 114C62.5609 114 63.0688 114.146 63.5238 114.437C63.9788 114.73 64.3386 115.143 64.6031 115.68C64.8677 116.205 65 116.812 65 117.499C65 118.188 64.8677 118.801 64.6031 119.337C64.3386 119.863 63.9788 120.27 63.5238 120.563Z" fill="#000810"/>
<path d="M71.8853 114.404V116.824H76.388V119.229H71.8853V123H69V112H77V114.404H71.8853Z" fill="#000810"/>
<path fill-rule="evenodd" clip-rule="evenodd" d="M89.043 112H84V123H89.043C90.211 123 91.247 122.774 92.151 122.325C93.0549 121.874 93.7558 121.235 94.2535 120.407C94.7512 119.58 95 118.61 95 117.499C95 116.39 94.7512 115.42 94.2535 114.593C93.7558 113.765 93.0549 113.126 92.151 112.675C91.247 112.226 90.211 112 89.043 112ZM91.1512 119.203C90.5957 119.735 89.8549 120 88.929 120H87V114H88.929C89.8549 114 90.5957 114.265 91.1512 114.797C91.717 115.328 92 116.063 92 116.999C92 117.937 91.717 118.672 91.1512 119.203Z" fill="#000810"/>
<path d="M105 120.596V123H96V112H104.792V114.404H99.1389V116.258H104.12V118.584H99.1389V120.596H105Z" fill="#000810"/>
<path d="M110.389 123C109.546 123 108.727 122.885 107.934 122.654C107.141 122.423 106.497 122.115 106 121.731L106.967 119.324C107.434 119.665 107.974 119.939 108.589 120.149C109.204 120.357 109.808 120.461 110.403 120.461C111.534 120.461 112.099 120.149 112.099 119.522C112.099 119.192 111.936 118.95 111.608 118.797C111.291 118.632 110.775 118.461 110.062 118.285C109.278 118.099 108.623 117.901 108.098 117.692C107.572 117.472 107.121 117.126 106.744 116.654C106.367 116.181 106.179 115.544 106.179 114.741C106.179 114.038 106.353 113.406 106.7 112.846C107.047 112.274 107.563 111.824 108.246 111.494C108.941 111.164 109.789 111 110.791 111C111.474 111 112.149 111.088 112.813 111.264C113.478 111.428 114.063 111.676 114.569 112.005L113.661 114.429C112.67 113.835 111.708 113.539 110.775 113.539C110.19 113.539 109.764 113.637 109.496 113.835C109.229 114.022 109.095 114.269 109.095 114.577C109.095 114.884 109.253 115.115 109.57 115.27C109.888 115.423 110.398 115.582 111.103 115.748C111.896 115.934 112.55 116.137 113.066 116.357C113.591 116.566 114.043 116.907 114.42 117.379C114.806 117.84 115 118.472 115 119.275C115 119.967 114.826 120.594 114.479 121.154C114.132 121.714 113.612 122.164 112.918 122.506C112.223 122.836 111.381 123 110.389 123Z" fill="#000810"/>
<path d="M117 112H120V123H117V112Z" fill="#000810"/>
<path d="M128.982 116.753H131.748V121.533C131.115 122.005 130.389 122.368 129.566 122.621C128.744 122.874 127.923 123 127.101 123C125.942 123 124.899 122.747 123.972 122.242C123.044 121.726 122.317 121.011 121.79 120.098C121.263 119.187 121 118.154 121 116.999C121 115.846 121.263 114.813 121.79 113.902C122.317 112.989 123.05 112.281 123.987 111.775C124.924 111.258 125.984 111 127.164 111C128.196 111 129.123 111.181 129.946 111.544C130.768 111.906 131.453 112.429 132 113.11L130.009 114.989C129.261 114.132 128.365 113.703 127.323 113.703C126.374 113.703 125.61 114.005 125.03 114.61C124.451 115.203 124.161 116 124.161 116.999C124.161 117.638 124.292 118.209 124.556 118.714C124.82 119.208 125.189 119.599 125.662 119.885C126.136 120.159 126.679 120.297 127.291 120.297C127.891 120.297 128.455 120.17 128.982 119.918V116.753Z" fill="#000810"/>
<path d="M144 112V123H141.553L136.914 117.138V123H134V112H136.447L141.087 117.862V112H144Z" fill="#000810"/>
<path fill-rule="evenodd" clip-rule="evenodd" d="M124.044 48.3375H73.7981V44.4644H124.047L128 40.4395L88.5127 0H80.5843L118.461 38.7731H111.93L73.7981 0H68.2073L30.067 38.7704H23.5337L61.389 0H53.4847L14 40.4395L17.9535 44.4644H68.1993V48.3375H17.9509L14 52.3597L53.8681 93H61.7352L23.5337 54.0289H30.067L68.1993 93H73.7901L111.93 54.0289H118.461L80.2435 93H88.9173L128 52.357L124.047 48.332L124.044 48.3375ZM38 39L68 8V39H38ZM68 54H38L68 85V54ZM104 39H74V8L104 39ZM74 54V85L104 54H74Z" fill="#000810"/>
</svg>
